<svg xmlns="http://www.w3.org/2000/svg" xmlns:xlink="http://www.w3.org/1999/xlink" version="1.1" style="" xml:space="preserve" width="512" height="512"><rect id="backgroundrect" width="100%" height="100%" x="0" y="0" fill="none" stroke="none"/>



















<g class="currentLayer" style=""><title>Layer 1</title><path style="" d="M256,512L256,512c139.695-52.258,232.276-185.739,232.276-334.887V86.716  c-47.892,0-86.716-38.824-86.716-86.716H256H110.44c0,47.892-38.824,86.716-86.716,86.716v90.396  C23.724,326.261,116.305,459.742,256,512L256,512z" id="svg_1" class="selected" fill-opacity="1" fill="#3fc3d1"/><path style="" d="M256,512L256,512c139.695-52.258,232.276-185.739,232.276-334.887V86.716  c-47.892,0-86.716-38.824-86.716-86.716H256C256,0,256,398,256,512L256,512z" id="svg_2" class="" fill-opacity="1" fill="#3fc3d1"/><polygon style="" points="223.642,346.281 146.64,269.28 189.066,226.853 223.642,261.429 322.934,162.137   365.36,204.563 " id="svg_3" class="" fill="#ffffff" fill-opacity="1"/><polygon style="" points="256,313.923 256,229.071 322.934,162.137 365.36,204.563 " id="svg_4" class="" fill="#ffffff" fill-opacity="1"/><g id="svg_5">
</g><g id="svg_6">
</g><g id="svg_7">
</g><g id="svg_8">
</g><g id="svg_9">
</g><g id="svg_10">
</g><g id="svg_11">
</g><g id="svg_12">
</g><g id="svg_13">
</g><g id="svg_14">
</g><g id="svg_15">
</g><g id="svg_16">
</g><g id="svg_17">
</g><g id="svg_18">
</g><g id="svg_19">
</g></g></svg>